<svg width="408" height="19" viewBox="0 0 408 19" fill="none" xmlns="http://www.w3.org/2000/svg">
<path d="M1 10L165 10" stroke="white" stroke-width="2" stroke-linecap="round"/>
<path d="M182.352 0.863999H184.368V10.272C184.368 10.672 184.36 11.112 184.344 11.592C184.344 12.056 184.336 12.52 184.32 12.984C184.304 13.448 184.28 13.864 184.248 14.232C184.232 14.584 184.216 14.856 184.2 15.048H184.296L193.728 0.863999H196.128V18H194.112V8.688C194.112 8.256 194.12 7.792 194.136 7.296C194.152 6.784 194.168 6.296 194.184 5.832C194.216 5.352 194.24 4.928 194.256 4.56C194.272 4.192 194.288 3.92 194.304 3.744H194.208L184.752 18H182.352V0.863999ZM210.254 18H208.118V6.888H204.326C204.166 8.92 203.966 10.656 203.726 12.096C203.486 13.52 203.182 14.68 202.814 15.576C202.446 16.472 202.006 17.128 201.494 17.544C200.982 17.96 200.382 18.168 199.694 18.168C199.486 18.168 199.278 18.152 199.07 18.12C198.878 18.104 198.718 18.064 198.59 18V16.416C198.686 16.448 198.79 16.472 198.902 16.488C199.014 16.504 199.126 16.512 199.238 16.512C199.59 16.512 199.91 16.368 200.198 16.08C200.486 15.792 200.742 15.352 200.966 14.76C201.206 14.168 201.422 13.424 201.614 12.528C201.806 11.616 201.974 10.544 202.118 9.312C202.262 8.08 202.39 6.688 202.502 5.136H210.254V18ZM216.329 12.984C216.329 13.128 216.321 13.336 216.305 13.608C216.305 13.864 216.297 14.144 216.281 14.448C216.265 14.736 216.249 15.016 216.233 15.288C216.217 15.544 216.201 15.752 216.185 15.912L223.073 5.136H225.665V18H223.697V10.416C223.697 10.16 223.697 9.824 223.697 9.408C223.713 8.992 223.729 8.584 223.745 8.184C223.761 7.768 223.777 7.456 223.793 7.248L216.953 18H214.337V5.136H216.329V12.984Z" fill="white"/>
<path d="M243 10L407 10" stroke="white" stroke-width="2" stroke-linecap="round"/>
</svg>
